<?xml version="1.0" encoding="UTF-8" standalone="no"?>
<svg
   xmlns:dc="http://purl.org/dc/elements/1.1/"
   xmlns:cc="http://creativecommons.org/ns#"
   xmlns:rdf="http://www.w3.org/1999/02/22-rdf-syntax-ns#"
   xmlns:svg="http://www.w3.org/2000/svg"
   xmlns="http://www.w3.org/2000/svg"
   viewBox="0 0 1044.1733 525.14667"
   height="525.14667"
   width="1044.1733"
   xml:space="preserve"
   version="1.1"
   id="svg2"><metadata
     id="metadata8"><rdf:RDF><cc:Work
         rdf:about=""><dc:format>image/svg+xml</dc:format><dc:type
           rdf:resource="http://purl.org/dc/dcmitype/StillImage" /></cc:Work></rdf:RDF></metadata><defs
     id="defs6"><clipPath
       id="clipPath18"
       clipPathUnits="userSpaceOnUse"><path
         id="path20"
         d="m 0,0 7831,0 0,3938.63 -7831,0 L 0,0 Z" /></clipPath></defs><g
     transform="matrix(1.3333333,0,0,-1.3333333,0,525.14667)"
     id="g10"><g
       transform="scale(0.1)"
       id="g12"><g
         id="g14"><g
           clip-path="url(#clipPath18)"
           id="g16"><path
             id="path22"
             style="fill:#5c5f65;fill-opacity:1;fill-rule:nonzero;stroke:none"
             d="m 3748.82,3886.82 c 0,14.73 6.1,25.56 18.49,32.55 12.35,6.85 26.92,10.39 43.79,10.39 14.73,0 28.8,-3.54 42.17,-10.39 13.3,-6.99 20,-17.82 20,-32.55 l 0,-726.16 c 0,-59.25 -8.42,-109.42 -25.16,-150.39 -16.87,-41.06 -39.82,-74.37 -68.98,-100 -29.12,-25.73 -63.47,-44.31 -102.94,-55.6 -39.56,-11.33 -81.96,-17.05 -127.47,-17.05 -45.4,0 -87.89,5.72 -127.37,17.05 -39.55,11.29 -73.68,29.87 -102.27,55.6 -28.65,25.63 -51.36,58.94 -68.21,100 -16.76,40.97 -25.19,91.14 -25.19,150.39 l 0,726.16 c 0,14.73 6.48,25.56 19.26,32.55 12.86,6.85 27.22,10.39 43.02,10.39 15.79,0 30.06,-3.54 43,-10.39 12.79,-6.99 19.25,-17.82 19.25,-32.55 l 0,-726.16 c 0,-72.12 17.52,-125.2 52.57,-159.35 35.03,-33.99 83.69,-51.06 145.94,-51.06 62.27,0 111.15,17.07 146.71,51.06 35.57,34.15 53.39,87.23 53.39,159.35 l 0,726.16" /><path
             id="path24"
             style="fill:#5c5f65;fill-opacity:1;fill-rule:nonzero;stroke:none"
             d="m 4226.01,3817.11 0,-386.72 191.15,0 c 61.22,0 110.64,14.82 148.15,44.44 37.59,29.63 56.32,79.48 56.32,149.71 0,69.11 -18.73,118.5 -56.32,148.12 -37.51,29.63 -86.93,44.45 -148.15,44.45 l -191.15,0 z m -124.53,69.71 c 0,10.74 3.92,20.46 11.9,28.87 7.89,8.42 18.72,13.09 32.58,14.07 l 271.2,0 c 44.45,0 86.7,-4.97 126.73,-14.81 39.91,-9.95 75.04,-26.18 105.18,-48.95 30.07,-22.65 53.83,-53.1 71.13,-91.14 17.21,-38.07 25.93,-85.2 25.93,-141.53 0,-45.42 -5.77,-84.74 -17.06,-117.76 -11.44,-33.16 -26.91,-61.28 -46.67,-84.5 -19.71,-23.17 -43.26,-41.96 -70.41,-56.34 -27.13,-14.27 -56.08,-24.43 -86.62,-30.22 l 219.28,-416.59 c 3.91,-6.83 5.94,-13.76 5.94,-20.59 0,-16.85 -7.98,-31.74 -23.69,-44.43 -15.79,-12.95 -32.63,-19.27 -50.46,-19.27 -12.77,0 -23.69,4.81 -32.56,14.76 -8.87,9.74 -16.85,21.19 -23.76,34.05 l -223.7,434.17 -170.41,0 0,-435.6 c 0,-14.9 -6.47,-25.93 -19.23,-33.38 -12.87,-7.38 -27.24,-11.14 -43.02,-11.14 -15.87,0 -30.15,3.76 -43.02,11.14 -12.8,7.45 -19.26,18.48 -19.26,33.38 l 0,995.81" /><path
             id="path26"
             style="fill:#5c5f65;fill-opacity:1;fill-rule:nonzero;stroke:none"
             d="m 5252.96,2959.14 c 59.33,0 105.74,16.01 139.33,48.18 33.54,32.06 50.39,83.71 50.39,154.85 l 0,25.19 c 0,71.05 -16.85,121.2 -50.39,150.38 -33.59,29.1 -80,43.68 -139.33,43.68 l -200.02,0 0,-422.28 200.02,0 z m -200.02,526.06 185.21,0 c 60.24,0 104.98,13.39 134.09,40.01 29.17,26.69 43.77,71.13 43.77,133.39 0,29.56 -4.46,54.53 -13.41,74.81 -8.88,20.24 -21.19,36.48 -37.06,48.89 -15.71,12.32 -35.04,21.29 -57.75,26.69 -22.7,5.42 -47.47,8.12 -74.06,8.12 l -180.79,0 0,-331.91 z m -124.53,400.04 c 0,14.89 5.96,26 17.82,33.39 11.88,7.37 24.7,11.13 38.44,11.13 l 254.91,0 c 40.53,0 79.1,-3.54 115.65,-10.39 36.45,-6.99 68.43,-19.69 95.58,-38.5 27.15,-18.81 48.87,-44.74 65.19,-77.83 16.31,-33.15 24.42,-75.33 24.42,-126.7 0,-62.25 -11.34,-114.13 -34.06,-155.58 -22.76,-41.58 -53.35,-70.69 -91.9,-87.44 22.74,-8.88 43.48,-19.94 62.28,-33.31 18.73,-13.4 34.83,-29.94 48.13,-49.71 13.38,-19.78 23.68,-43.38 31.2,-71.13 7.38,-27.6 11.06,-60.31 11.06,-97.76 l 0,-26.7 c 0,-56.32 -7.66,-104.21 -22.92,-143.77 -15.44,-39.48 -36.1,-71.27 -62.28,-95.5 -26.17,-24.29 -57.06,-41.8 -92.63,-52.54 -35.66,-11 -74.14,-16.41 -115.58,-16.41 l -289.05,0 c -16.69,0 -30.3,4.44 -40.69,13.38 -10.38,8.8 -15.57,18.73 -15.57,29.55 l 0,995.82" /><path
             id="path28"
             style="fill:#5c5f65;fill-opacity:1;fill-rule:nonzero;stroke:none"
             d="m 6225.1,3197.72 -164.55,557.21 -167.44,-557.21 331.99,0 z m -471.33,-351.23 c -16.77,0 -33.54,4.66 -50.3,14.13 -16.93,9.31 -25.2,21.97 -25.2,37.75 0,1.96 0.96,5.95 2.95,11.9 l 302.27,985.42 c 4.96,14.74 14.81,25.66 29.69,32.56 14.81,6.92 30.6,10.38 47.37,10.38 16.79,0 32.63,-3.69 47.47,-11.14 14.8,-7.44 24.73,-18.05 29.61,-31.8 l 302.3,-985.42 c 0,-2.05 0.29,-3.78 0.74,-5.2 0.45,-1.59 0.75,-3.23 0.75,-5.27 0,-14.81 -8.4,-27.36 -25.2,-37.76 -16.84,-10.36 -34.06,-15.55 -51.79,-15.55 -10.98,0 -20.31,2.27 -28.21,6.71 -8.03,4.43 -13.37,11.65 -16.31,21.49 l -65.27,220.77 -389.72,0 -65.13,-220.77 c -6.02,-18.86 -21.36,-28.2 -46.02,-28.2" /><path
             id="path30"
             style="fill:#5c5f65;fill-opacity:1;fill-rule:nonzero;stroke:none"
             d="m 7170.25,2846.49 c -16.85,0 -31.89,5.19 -45.27,15.55 -13.3,10.4 -24.37,24 -33.3,40.77 l -385.26,745.42 0,-757.22 c 0,-14.9 -6.47,-25.93 -19.23,-33.38 -12.93,-7.38 -27.29,-11.14 -43,-11.14 -15.86,0 -30.17,3.76 -43.05,11.14 -12.76,7.45 -19.23,18.48 -19.23,33.38 l 0,995.81 c 0,15.79 6.18,26.84 18.52,33.23 12.32,6.46 26.91,9.71 43.76,9.71 22.7,0 40.74,-6.61 54.04,-19.93 13.32,-13.38 26.95,-32.93 40.69,-58.65 l 369.05,-721.64 0,757.28 c 0,14.73 6.41,25.56 19.27,32.55 12.76,6.85 27.19,10.39 43.01,10.39 15.71,0 30.06,-3.54 42.94,-10.39 12.85,-6.99 19.23,-17.82 19.23,-32.55 l 0,-995.81 c 0,-14.9 -6.38,-25.93 -19.23,-33.38 -12.88,-7.38 -27.23,-11.14 -42.94,-11.14" /><path
             id="path32"
             style="fill:#1d76ba;fill-opacity:1;fill-rule:nonzero;stroke:none"
             d="m 2991.24,1586.55 c 20.67,0 38.5,-7.69 53.31,-23.02 14.8,-15.27 22.19,-33.75 22.19,-55.5 0,-19.84 -7.39,-37.59 -22.19,-53.38 -14.81,-15.81 -32.64,-23.7 -53.31,-23.7 -22.79,0 -41.29,7.89 -55.57,23.7 -14.3,15.79 -21.51,33.54 -21.51,53.38 0,21.75 7.21,40.23 21.51,55.5 14.28,15.33 32.78,23.02 55.57,23.02" /><path
             id="path34"
             style="fill:#1d76ba;fill-opacity:1;fill-rule:nonzero;stroke:none"
             d="m 3754.38,2480.15 c 0,14.74 6.18,25.58 18.59,32.59 12.25,6.83 26.84,10.35 43.67,10.35 14.83,0 28.9,-3.52 42.28,-10.35 13.32,-7.01 20,-17.85 20,-32.59 l 0,-726.16 c 0,-59.23 -8.4,-109.41 -25.2,-150.38 -16.84,-41.07 -39.78,-74.36 -68.95,-100.08 -29.11,-25.65 -63.47,-44.21 -102.94,-55.5 -39.56,-11.37 -82.04,-17.08 -127.46,-17.08 -45.41,0 -87.98,5.71 -127.45,17.08 -39.48,11.29 -73.62,29.85 -102.27,55.5 -28.57,25.72 -51.37,59.01 -68.14,100.08 -16.83,40.97 -25.19,91.15 -25.19,150.38 l 0,726.16 c 0,14.74 6.4,25.58 19.26,32.59 12.86,6.83 27.23,10.35 43.02,10.35 15.71,0 30.15,-3.52 42.93,-10.35 12.85,-7.01 19.32,-17.85 19.32,-32.59 l 0,-726.16 c 0,-72.11 17.46,-125.19 52.49,-159.31 35.11,-34.01 83.77,-51.07 146.03,-51.07 62.27,0 111.14,17.06 146.7,51.07 35.49,34.12 53.31,87.2 53.31,159.31 l 0,726.16" /><path
             id="path36"
             style="fill:#1d76ba;fill-opacity:1;fill-rule:nonzero;stroke:none"
             d="m 4388.47,1543.61 c 62.33,0 112.18,14.97 149.72,45.19 37.5,30.14 56.23,76.31 56.23,138.51 0,49.4 -11.94,88.35 -36.24,117.09 -24.21,28.63 -54.35,52.31 -90.38,71.12 -36.1,18.73 -75.04,35.58 -117.08,50.38 -41.96,14.89 -80.97,33.38 -117.09,55.65 -35.99,22.1 -66.16,50.82 -90.38,85.86 -24.21,35.05 -36.32,82.73 -36.32,143.02 0,54.29 10.18,99.26 30.44,134.84 20.16,35.56 46.2,63.76 77.78,84.53 31.57,20.67 66.62,35.25 105.27,43.6 38.52,8.42 75.95,12.63 112.58,12.63 26.68,0 55.02,-2.04 85.19,-5.86 30.14,-3.99 57.96,-9.94 83.7,-17.83 25.7,-7.89 47.21,-18.04 64.51,-30.37 17.21,-12.4 25.86,-26.91 25.86,-43.7 0,-11.87 -4.67,-26.15 -14.08,-43 -9.37,-16.78 -22.46,-25.12 -39.22,-25.12 -8.9,0 -18.52,2.93 -28.88,8.88 -10.38,5.85 -23.23,12.31 -38.57,19.24 -15.28,6.92 -34.09,13.31 -56.27,19.25 -22.32,5.93 -49.61,8.88 -82.24,8.88 -27.69,0 -53.62,-2.79 -77.85,-8.11 -24.21,-5.5 -45.4,-14.07 -63.61,-25.95 -18.33,-11.89 -33,-27.68 -43.76,-47.46 -10.91,-19.7 -16.39,-43.92 -16.39,-72.64 0,-41.43 12.1,-74.06 36.39,-97.82 24.21,-23.61 54.22,-43.63 90.38,-59.95 35.95,-16.29 74.99,-31.95 117.08,-46.67 41.97,-14.81 80.99,-34.59 117.02,-59.26 36.07,-24.74 66.17,-57.3 90.38,-97.85 24.21,-40.5 36.39,-94.36 36.39,-161.51 0,-53.3 -8.21,-99.55 -24.53,-138.59 -16.32,-39.03 -38.78,-71.34 -67.36,-97.06 -28.66,-25.65 -62.86,-44.58 -102.28,-57 -39.47,-12.33 -83.01,-18.58 -130.38,-18.58 -47.44,0 -90.67,5.72 -129.69,17.06 -38.97,11.37 -72.13,25.72 -99.34,42.94 -27.07,17.37 -48.13,35.58 -62.85,54.84 -14.84,19.22 -22.26,36.84 -22.26,52.63 0,14.88 5.7,29.93 17.06,45.19 11.26,15.34 23.9,23 37.75,23 10.84,0 21.88,-6.15 33.3,-18.58 11.36,-12.31 26.17,-26.09 44.45,-41.42 18.35,-15.27 41.19,-29.17 68.87,-41.6 27.68,-12.31 63.23,-18.4 106.7,-18.4" /><path
             id="path38"
             style="fill:#5c5f65;fill-opacity:1;fill-rule:nonzero;stroke:none"
             d="m 5052.22,2167.83 c 23.63,0 42.57,5.75 56.79,17.14 14.23,11.42 21.38,28.93 21.38,52.53 0,18.78 -4.61,33.56 -13.8,44.43 -9.22,10.87 -20.63,19.88 -34.26,26.97 -13.72,7.16 -28.55,13.48 -44.41,19.13 -15.95,5.61 -30.78,12.62 -44.4,21.04 -13.73,8.41 -25.11,19.3 -34.28,32.62 -9.24,13.27 -13.77,31.38 -13.77,54.26 0,20.56 3.79,37.62 11.52,51.1 7.68,13.5 17.53,24.23 29.43,32.04 12.08,7.91 25.35,13.42 39.95,16.62 14.62,3.14 28.84,4.77 42.69,4.77 10.15,0 20.93,-0.74 32.35,-2.31 11.39,-1.47 21.99,-3.72 31.73,-6.69 9.75,-2.98 17.89,-6.86 24.46,-11.57 6.54,-4.62 9.9,-10.13 9.9,-16.54 0,-4.46 -1.77,-9.89 -5.46,-16.32 -3.5,-6.33 -8.39,-9.53 -14.8,-9.53 -3.44,0 -7.03,1.12 -10.97,3.35 -3.95,2.32 -8.85,4.7 -14.59,7.31 -5.89,2.61 -12.96,5.07 -21.38,7.3 -8.42,2.3 -18.86,3.43 -31.24,3.43 -10.43,0 -20.26,-1.05 -29.5,-3.13 -9.17,-2.09 -17.22,-5.29 -24.13,-9.84 -6.94,-4.46 -12.45,-10.5 -16.61,-17.96 -4.11,-7.52 -6.2,-16.69 -6.2,-27.56 0,-15.72 4.64,-28.09 13.78,-37.11 9.23,-8.94 20.65,-16.55 34.29,-22.73 13.7,-6.19 28.54,-12.07 44.41,-17.74 15.94,-5.59 30.69,-13.11 44.39,-22.43 13.72,-9.38 25.11,-21.75 34.28,-37.1 9.16,-15.35 13.77,-35.82 13.77,-61.25 0,-20.27 -3.1,-37.78 -9.3,-52.61 -6.2,-14.83 -14.59,-27.05 -25.48,-36.8 -10.88,-9.77 -23.84,-16.92 -38.83,-21.61 -14.97,-4.69 -31.45,-7.07 -49.46,-7.07 -17.96,0 -34.35,2.14 -49.19,6.49 -14.75,4.29 -27.34,9.75 -37.61,16.29 -10.29,6.57 -18.29,13.51 -23.93,20.79 -5.59,7.32 -8.42,13.94 -8.42,19.98 0,5.58 2.15,11.33 6.49,17.14 4.32,5.82 9.09,8.71 14.3,8.71 4.09,0 8.35,-2.3 12.67,-7 4.24,-4.68 9.9,-9.98 16.89,-15.81 6.87,-5.72 15.58,-11.02 26.1,-15.7 10.52,-4.7 24,-7.03 40.45,-7.03" /><path
             id="path40"
             style="fill:#5c5f65;fill-opacity:1;fill-rule:nonzero;stroke:none"
             d="m 5451.85,2539.37 c 5.66,0 9.82,-2.24 12.65,-6.78 2.76,-4.46 4.19,-9.39 4.19,-14.61 0,-5.65 -1.43,-10.8 -4.19,-15.42 -2.83,-4.7 -6.99,-7.08 -12.65,-7.08 l -90.47,0 0,-350.14 c 0,-5.59 -2.46,-9.83 -7.31,-12.58 -4.9,-2.83 -10.36,-4.24 -16.3,-4.24 -6.06,0 -11.41,1.41 -16.33,4.24 -4.86,2.75 -7.29,6.99 -7.29,12.58 l 0,350.14 -91.07,0 c -5.2,0 -9.38,2.3 -12.35,6.78 -2.99,4.46 -4.47,9.68 -4.47,15.72 0,5.22 1.32,10.15 4.16,14.61 2.83,4.54 7.07,6.78 12.66,6.78 l 228.77,0" /><path
             id="path42"
             style="fill:#5c5f65;fill-opacity:1;fill-rule:nonzero;stroke:none"
             d="m 5675.02,2261.74 -62.38,211.31 -63.47,-211.31 125.85,0 z m -178.7,-133.22 c -6.33,0 -12.75,1.78 -19.15,5.35 -6.34,3.5 -9.51,8.27 -9.51,14.31 0,0.74 0.34,2.22 1.08,4.47 l 114.68,373.75 c 1.87,5.66 5.58,9.76 11.26,12.38 5.66,2.59 11.54,3.94 17.96,3.94 6.4,0 12.37,-1.41 18.03,-4.24 5.59,-2.77 9.33,-6.86 11.19,-12.08 l 114.66,-373.75 c 0,-0.74 0.08,-1.43 0.3,-1.95 0.15,-0.59 0.29,-1.25 0.29,-2.02 0,-5.56 -3.2,-10.36 -9.54,-14.27 -6.41,-3.95 -12.95,-5.89 -19.65,-5.89 -4.19,0 -7.76,0.8 -10.73,2.52 -2.99,1.72 -5.09,4.4 -6.2,8.13 l -24.74,83.74 -147.84,0 -24.66,-83.74 c -2.23,-7.07 -8.11,-10.65 -17.43,-10.65" /><path
             id="path44"
             style="fill:#5c5f65;fill-opacity:1;fill-rule:nonzero;stroke:none"
             d="m 5854.27,2496.67 0,-146.71 72.59,0 c 23.17,0 41.96,5.58 56.18,16.84 14.25,11.25 21.33,30.17 21.33,56.77 0,26.24 -7.08,44.93 -21.33,56.19 -14.22,11.24 -33.01,16.91 -56.18,16.91 l -72.59,0 z m -47.15,26.38 c 0,4.1 1.48,7.75 4.48,10.96 2.96,3.2 7.15,4.91 12.36,5.36 l 102.9,0 c 16.84,0 32.87,-1.95 47.99,-5.67 15.18,-3.72 28.53,-9.9 39.94,-18.56 11.45,-8.57 20.41,-20.11 26.98,-34.56 6.54,-14.39 9.82,-32.27 9.82,-53.66 0,-17.22 -2.15,-32.1 -6.48,-44.7 -4.33,-12.53 -10.21,-23.18 -17.65,-32.04 -7.52,-8.79 -16.4,-15.87 -26.67,-21.31 -10.36,-5.45 -21.33,-9.31 -32.93,-11.55 l 83.2,-157.91 c 1.43,-2.65 2.17,-5.27 2.17,-7.86 0,-6.36 -2.99,-12.01 -8.92,-16.86 -5.99,-4.92 -12.4,-7.31 -19.1,-7.31 -4.9,0 -9.01,1.86 -12.37,5.59 -3.42,3.74 -6.41,8.06 -9,12.98 l -84.88,164.66 -64.69,0 0,-165.27 c 0,-5.59 -2.43,-9.83 -7.28,-12.58 -4.85,-2.83 -10.28,-4.24 -16.24,-4.24 -6.04,0 -11.5,1.41 -16.35,4.24 -4.84,2.75 -7.28,6.99 -7.28,12.58 l 0,377.71" /><path
             id="path46"
             style="fill:#5c5f65;fill-opacity:1;fill-rule:nonzero;stroke:none"
             d="m 6320.81,2539.37 c 5.59,0 9.82,-2.24 12.66,-6.78 2.75,-4.46 4.24,-9.39 4.24,-14.61 0,-5.65 -1.49,-10.8 -4.24,-15.42 -2.84,-4.7 -7.07,-7.08 -12.66,-7.08 l -90.47,0 0,-350.14 c 0,-5.59 -2.46,-9.83 -7.38,-12.58 -4.83,-2.83 -10.25,-4.24 -16.24,-4.24 -6.02,0 -11.48,1.41 -16.29,4.24 -4.85,2.75 -7.34,6.99 -7.34,12.58 l 0,350.14 -91.05,0 c -5.21,0 -9.37,2.3 -12.36,6.78 -2.97,4.46 -4.48,9.68 -4.48,15.72 0,5.22 1.43,10.15 4.26,14.61 2.76,4.54 7.02,6.78 12.58,6.78 l 228.77,0" /><path
             id="path48"
             style="fill:#5c5f65;fill-opacity:1;fill-rule:nonzero;stroke:none"
             d="m 6582.13,2523.05 c 0,5.66 2.38,9.75 7.07,12.37 4.69,2.6 10.19,3.95 16.55,3.95 5.65,0 10.95,-1.35 16.01,-3.95 5.09,-2.62 7.6,-6.71 7.6,-12.37 l 0,-275.4 c 0,-22.49 -3.21,-41.51 -9.54,-57.09 -6.41,-15.49 -15.12,-28.16 -26.14,-37.91 -11.13,-9.77 -24.08,-16.76 -39.05,-21.1 -14.96,-4.24 -31.15,-6.39 -48.34,-6.39 -17.22,0 -33.33,2.15 -48.37,6.39 -15,4.34 -27.87,11.33 -38.76,21.1 -10.89,9.75 -19.44,22.42 -25.85,37.91 -6.41,15.58 -9.54,34.6 -9.54,57.09 l 0,275.4 c 0,5.66 2.39,9.75 7.28,12.37 4.86,2.6 10.31,3.95 16.35,3.95 5.96,0 11.39,-1.35 16.24,-3.95 4.92,-2.62 7.29,-6.71 7.29,-12.37 l 0,-275.4 c 0,-27.34 6.73,-47.47 20,-60.43 13.32,-12.9 31.73,-19.39 55.36,-19.39 23.6,0 42.17,6.49 55.65,19.39 13.46,12.96 20.19,33.09 20.19,60.43 l 0,275.4" /><path
             id="path50"
             style="fill:#5c5f65;fill-opacity:1;fill-rule:nonzero;stroke:none"
             d="m 6754.71,2496.67 0,-166.38 75.84,0 c 23.26,0 41.42,6.54 54.54,19.67 13.11,13.11 19.69,33.15 19.69,60.13 l 0,6.71 c 0,27.41 -6.58,47.54 -19.69,60.42 -13.12,12.97 -31.28,19.45 -54.54,19.45 l -75.84,0 z m -47.26,26.38 c 0,4.1 1.72,7.82 5.06,11.25 3.36,3.35 8.06,5.07 14.09,5.07 l 106.25,0 c 16.48,0 31.97,-2.16 46.57,-6.49 14.62,-4.32 27.29,-11.24 38.01,-20.79 10.66,-9.53 19.07,-22.12 25.28,-37.7 6.17,-15.5 9.21,-34.34 9.21,-56.41 l 0,-5.06 c 0,-22.13 -3.04,-40.91 -9.21,-56.26 -6.21,-15.35 -14.84,-27.87 -25.88,-37.63 -11.03,-9.75 -23.98,-16.85 -38.73,-21.38 -14.84,-4.47 -30.63,-6.71 -47.55,-6.71 l -75.84,0 0,-145.6 c 0,-5.59 -2.46,-9.83 -7.32,-12.58 -4.84,-2.83 -10.3,-4.24 -16.31,-4.24 -6.04,0 -11.42,1.41 -16.31,4.24 -4.86,2.75 -7.32,6.99 -7.32,12.58 l 0,377.71" /><path
             id="path52"
             style="fill:#5c5f65;fill-opacity:1;fill-rule:nonzero;stroke:none"
             d="m 7103.71,2167.83 c 23.62,0 42.54,5.75 56.77,17.14 14.17,11.42 21.4,28.93 21.4,52.53 0,18.78 -4.61,33.56 -13.88,44.43 -9.14,10.87 -20.56,19.88 -34.25,26.97 -13.64,7.16 -28.48,13.48 -44.35,19.13 -15.94,5.61 -30.75,12.62 -44.39,21.04 -13.72,8.41 -25.2,19.3 -34.28,32.62 -9.25,13.27 -13.81,31.38 -13.81,54.26 0,20.56 3.82,37.62 11.51,51.1 7.65,13.5 17.56,24.23 29.51,32.04 11.97,7.91 25.32,13.42 39.91,16.62 14.6,3.14 28.85,4.77 42.71,4.77 10.11,0 20.92,-0.74 32.34,-2.31 11.39,-1.47 21.96,-3.72 31.74,-6.69 9.76,-2.98 17.87,-6.86 24.44,-11.57 6.55,-4.62 9.84,-10.13 9.84,-16.54 0,-4.46 -1.81,-9.89 -5.38,-16.32 -3.5,-6.33 -8.48,-9.53 -14.81,-9.53 -3.45,0 -7.1,1.12 -10.97,3.35 -3.95,2.32 -8.87,4.7 -14.6,7.31 -5.87,2.61 -12.97,5.07 -21.4,7.3 -8.48,2.3 -18.83,3.43 -31.2,3.43 -10.44,0 -20.35,-1.05 -29.52,-3.13 -9.16,-2.09 -17.21,-5.29 -24.16,-9.84 -6.91,-4.46 -12.42,-10.5 -16.6,-17.96 -4.11,-7.52 -6.17,-16.69 -6.17,-27.56 0,-15.72 4.61,-28.09 13.77,-37.11 9.17,-8.94 20.59,-16.55 34.28,-22.73 13.72,-6.19 28.47,-12.07 44.39,-17.74 15.98,-5.59 30.74,-13.11 44.43,-22.43 13.72,-9.38 25.11,-21.75 34.27,-37.1 9.17,-15.35 13.8,-35.82 13.8,-61.25 0,-20.27 -3.14,-37.78 -9.31,-52.61 -6.2,-14.83 -14.68,-27.05 -25.49,-36.8 -10.97,-9.77 -23.84,-16.92 -38.83,-21.61 -14.97,-4.69 -31.45,-7.07 -49.46,-7.07 -17.98,0 -34.44,2.14 -49.19,6.49 -14.84,4.29 -27.34,9.75 -37.62,16.29 -10.35,6.57 -18.36,13.51 -23.92,20.79 -5.58,7.32 -8.42,13.94 -8.42,19.98 0,5.58 2.15,11.33 6.46,17.14 4.32,5.82 9.11,8.71 14.31,8.71 4.1,0 8.37,-2.3 12.66,-7 4.26,-4.68 9.94,-9.98 16.85,-15.81 6.93,-5.72 15.65,-11.02 26.17,-15.7 10.41,-4.7 24,-7.03 40.45,-7.03" /><path
             id="path54"
             style="fill:#5c5f65;fill-opacity:1;fill-rule:nonzero;stroke:none"
             d="m 5050.71,1456.85 c 23.63,0 42.54,5.72 56.77,17.12 14.22,11.49 21.38,28.92 21.38,52.55 0,18.78 -4.61,33.51 -13.78,44.4 -9.25,10.88 -20.64,19.89 -34.28,26.99 -13.69,7.15 -28.52,13.48 -44.39,19.15 -15.95,5.57 -30.78,12.66 -44.4,21.01 -13.72,8.48 -25.14,19.29 -34.3,32.64 -9.25,13.24 -13.78,31.35 -13.78,54.24 0,20.64 3.78,37.62 11.55,51.11 7.68,13.47 17.51,24.21 29.43,32.05 12.08,7.89 25.32,13.4 39.94,16.6 14.6,3.21 28.83,4.77 42.71,4.77 10.12,0 20.93,-0.74 32.34,-2.22 11.39,-1.56 21.97,-3.74 31.73,-6.79 9.76,-2.99 17.88,-6.85 24.42,-11.49 6.58,-4.69 9.95,-10.2 9.95,-16.61 0,-4.48 -1.81,-9.91 -5.46,-16.31 -3.5,-6.34 -8.43,-9.54 -14.84,-9.54 -3.41,0 -6.99,1.11 -10.93,3.36 -3.98,2.31 -8.88,4.69 -14.63,7.37 -5.88,2.54 -12.95,5 -21.38,7.3 -8.42,2.23 -18.86,3.34 -31.2,3.34 -10.44,0 -20.29,-1.03 -29.51,-3.12 -9.16,-2.01 -17.22,-5.31 -24.16,-9.83 -6.92,-4.48 -12.43,-10.44 -16.61,-17.97 -4.11,-7.51 -6.18,-16.67 -6.18,-27.56 0,-15.74 4.61,-28.09 13.78,-37.03 9.25,-9.02 20.64,-16.62 34.28,-22.82 13.72,-6.17 28.53,-12.05 44.39,-17.72 15.95,-5.59 30.71,-13.11 44.43,-22.43 13.72,-9.38 25.12,-21.75 34.28,-37.09 9.17,-15.36 13.78,-35.78 13.78,-61.27 0,-20.27 -3.13,-37.78 -9.3,-52.61 -6.2,-14.73 -14.63,-27.04 -25.52,-36.71 -10.86,-9.77 -23.81,-17.01 -38.8,-21.7 -15,-4.69 -31.44,-6.99 -49.48,-6.99 -17.97,0 -34.34,2.15 -49.17,6.41 -14.76,4.32 -27.33,9.75 -37.64,16.29 -10.28,6.57 -18.25,13.51 -23.92,20.8 -5.56,7.31 -8.42,13.93 -8.42,19.97 0,5.58 2.17,11.33 6.48,17.13 4.32,5.83 9.1,8.73 14.31,8.73 4.1,0 8.34,-2.31 12.66,-7 4.26,-4.69 9.94,-9.91 16.93,-15.71 6.86,-5.83 15.58,-11.12 26.06,-15.81 10.52,-4.61 24,-7 40.48,-7" /><path
             id="path56"
             style="fill:#5c5f65;fill-opacity:1;fill-rule:nonzero;stroke:none"
             d="m 5428.43,1705.85 c 0,27.36 -6.57,47.47 -19.69,60.37 -13.11,12.96 -31.31,19.45 -54.54,19.45 -23.25,0 -41.3,-6.49 -54.25,-19.45 -12.9,-12.9 -19.36,-33.01 -19.36,-60.37 l 0,-169.19 c 0,-27.36 6.46,-47.49 19.36,-60.45 12.95,-12.9 31,-19.36 54.25,-19.36 23.23,0 41.43,6.46 54.54,19.36 13.12,12.96 19.69,33.09 19.69,60.45 l 0,169.19 z m -74.23,-291.7 c -16.85,0 -32.64,2.15 -47.47,6.49 -14.84,4.24 -27.66,11.32 -38.52,21.09 -10.89,9.67 -19.38,22.35 -25.55,37.93 -6.2,15.5 -9.33,34.49 -9.33,57 l 0,169.19 c 0,22.44 3.13,41.44 9.33,57.01 6.17,15.58 14.66,28.24 25.55,37.93 10.86,9.75 23.68,16.77 38.52,21.09 14.83,4.31 30.62,6.49 47.47,6.49 16.9,0 32.71,-2.18 47.53,-6.49 14.74,-4.32 27.73,-11.34 38.75,-21.09 11.01,-9.69 19.68,-22.35 25.85,-37.93 6.2,-15.57 9.32,-34.57 9.32,-57.01 l 0,-169.19 c 0,-22.51 -3.12,-41.5 -9.32,-57 -6.17,-15.58 -14.84,-28.26 -25.85,-37.93 -11.02,-9.77 -24.01,-16.85 -38.75,-21.09 -14.82,-4.34 -30.63,-6.49 -47.53,-6.49" /><path
             id="path58"
             style="fill:#5c5f65;fill-opacity:1;fill-rule:nonzero;stroke:none"
             d="m 5572.82,1417.49 c -5.22,0 -10.14,1.43 -14.63,4.26 -4.44,2.75 -6.67,6.99 -6.67,12.59 l 0,377.71 c 0,5.65 2.36,9.75 7.29,12.38 4.84,2.58 10.27,3.94 16.24,3.94 6.03,0 11.49,-1.36 16.32,-3.94 4.92,-2.63 7.3,-6.73 7.3,-12.38 l 0,-351.83 153.49,0 c 5.21,0 9.03,-2.26 11.49,-6.73 2.39,-4.47 3.65,-9.38 3.65,-14.6 0,-5.29 -1.26,-10.15 -3.65,-14.67 -2.46,-4.48 -6.28,-6.73 -11.49,-6.73 l -179.34,0" /><path
             id="path60"
             style="fill:#5c5f65;fill-opacity:1;fill-rule:nonzero;stroke:none"
             d="m 5739.74,1804.24 c -0.75,2.23 -1.15,3.7 -1.15,4.44 0,5.97 3.21,10.74 9.56,14.31 6.41,3.57 12.75,5.38 19.15,5.38 9.3,0 15.21,-3.57 17.44,-10.67 l 98.88,-333.88 98.33,333.88 c 2.71,7.1 8.29,10.67 16.85,10.67 6.78,0 13.35,-2.01 19.74,-5.88 6.35,-3.95 9.56,-8.75 9.56,-14.38 0,-0.77 -0.16,-1.44 -0.3,-1.94 -0.15,-0.61 -0.31,-1.19 -0.31,-1.93 l -114.06,-373.85 c -1.89,-5.22 -5.68,-9.25 -11.26,-12.08 -5.6,-2.75 -11.77,-4.16 -18.55,-4.16 -6.35,0 -12.23,1.35 -17.66,3.87 -5.43,2.68 -9.11,6.78 -10.97,12.37 l -115.25,373.85" /><path
             id="path62"
             style="fill:#5c5f65;fill-opacity:1;fill-rule:nonzero;stroke:none"
             d="m 6077.47,1812.05 c 0,5.65 2.49,9.75 7.39,12.38 4.86,2.58 10.29,3.94 16.32,3.94 5.96,0 11.42,-1.36 16.24,-3.94 4.85,-2.63 7.32,-6.73 7.32,-12.38 l 0,-377.71 c 0,-5.6 -2.47,-9.84 -7.32,-12.59 -4.82,-2.83 -10.28,-4.26 -16.24,-4.26 -6.03,0 -11.46,1.43 -16.32,4.26 -4.9,2.75 -7.39,6.99 -7.39,12.59 l 0,377.71" /><path
             id="path64"
             style="fill:#5c5f65;fill-opacity:1;fill-rule:nonzero;stroke:none"
             d="m 6427.7,1417.49 c -6.42,0 -12.08,1.96 -17.14,5.91 -5.06,3.95 -9.3,9.08 -12.67,15.49 l -146.11,282.7 0,-287.25 c 0,-5.6 -2.46,-9.84 -7.29,-12.59 -4.93,-2.83 -10.3,-4.26 -16.35,-4.26 -5.95,0 -11.46,1.43 -16.31,4.26 -4.85,2.75 -7.21,6.99 -7.21,12.59 l 0,377.71 c 0,5.96 2.3,10.2 6.91,12.66 4.7,2.39 10.29,3.66 16.61,3.66 8.67,0 15.5,-2.55 20.51,-7.61 5.06,-5.05 10.2,-12.45 15.5,-22.22 l 139.91,-273.66 0,287.17 c 0,5.65 2.41,9.75 7.32,12.38 4.84,2.58 10.3,3.94 16.32,3.94 5.95,0 11.41,-1.36 16.31,-3.94 4.85,-2.63 7.23,-6.73 7.23,-12.38 l 0,-377.71 c 0,-5.6 -2.38,-9.84 -7.23,-12.59 -4.9,-2.83 -10.36,-4.26 -16.31,-4.26" /><path
             id="path66"
             style="fill:#5c5f65;fill-opacity:1;fill-rule:nonzero;stroke:none"
             d="m 6722.18,1721.01 c -2.25,19.49 -9.11,35.14 -20.5,46.94 -11.47,11.76 -29.36,17.72 -53.64,17.72 -23.24,0 -41.36,-6.49 -54.31,-19.45 -12.9,-12.9 -19.31,-33.01 -19.31,-60.37 l 0,-169.19 c 0,-27.36 6.41,-47.49 19.31,-60.45 12.95,-12.9 31.07,-19.36 54.31,-19.36 23.17,0 41.34,6.46 54.46,19.36 13.11,12.96 19.68,33.09 19.68,60.45 l 0,57.31 -66.84,0 c -5.29,0 -9.31,2.01 -12.08,5.92 -2.83,3.95 -4.24,8.51 -4.24,13.73 0,4.93 1.41,9.37 4.24,13.56 2.77,4.11 6.79,6.09 12.08,6.09 l 97.76,0 c 5.21,0 9.31,-1.77 12.07,-5.27 2.84,-3.57 4.23,-7.6 4.23,-12.08 l 0,-79.26 c 0,-22.51 -3.12,-41.5 -9.23,-57 -6.18,-15.58 -14.81,-28.26 -25.91,-37.93 -11.05,-9.77 -24.01,-16.85 -38.75,-21.09 -14.84,-4.34 -30.63,-6.49 -47.47,-6.49 -16.94,0 -32.72,2.15 -47.53,6.49 -14.78,4.24 -27.57,11.32 -38.46,21.09 -10.89,9.67 -19.44,22.35 -25.64,37.93 -6.18,15.5 -9.25,34.49 -9.25,57 l 0,169.19 c 0,22.44 3.07,41.44 9.25,57.01 6.2,15.58 14.75,28.24 25.64,37.93 10.89,9.75 23.55,16.77 38.15,21.09 14.61,4.31 30.16,6.49 46.72,6.49 18.33,0 35.07,-2.46 50.23,-7.31 15.2,-4.85 28.15,-11.68 38.81,-20.56 10.67,-8.79 18.93,-19.38 24.73,-31.76 5.8,-12.34 8.71,-25.98 8.71,-40.95 0,-9.04 -2.06,-15.15 -6.17,-18.35 -4.1,-3.14 -9.93,-4.78 -17.45,-4.78 -6.31,0 -11.76,1.27 -16.24,3.66 -4.53,2.46 -6.99,6.7 -7.36,12.69" /><path
             id="path68"
             style="fill:#5c5f65;fill-opacity:1;fill-rule:nonzero;stroke:none"
             d="m 5132.22,1108.83 c 0,5.67 2.33,9.75 7.02,12.37 4.69,2.68 10.19,3.95 16.61,3.95 5.59,0 10.94,-1.27 15.95,-3.95 5.13,-2.62 7.67,-6.7 7.67,-12.37 l 0,-275.408 c 0,-22.492 -3.2,-41.481 -9.61,-56.981 -6.33,-15.582 -15.05,-28.23 -26.17,-37.929 -11.02,-9.782 -24.05,-16.77 -39.02,-21.09 -14.99,-4.313 -31.08,-6.492 -48.37,-6.492 -17.22,0 -33.3,2.179 -48.29,6.492 -14.97,4.32 -27.95,11.308 -38.81,21.09 -10.89,9.699 -19.46,22.347 -25.85,37.929 -6.36,15.5 -9.56,34.489 -9.56,56.981 l 0,275.408 c 0,5.67 2.46,9.75 7.3,12.37 4.86,2.68 10.29,3.95 16.32,3.95 6.05,0 11.39,-1.27 16.32,-3.95 4.84,-2.62 7.31,-6.7 7.31,-12.37 l 0,-275.408 c 0,-27.332 6.63,-47.442 19.98,-60.422 13.27,-12.879 31.73,-19.371 55.28,-19.371 23.6,0 42.17,6.492 55.65,19.371 13.49,12.98 20.27,33.09 20.27,60.422 l 0,275.408" /><path
             id="path70"
             style="fill:#5c5f65;fill-opacity:1;fill-rule:nonzero;stroke:none"
             d="m 5304.72,1082.44 0,-146.702 72.58,0 c 23.18,0 41.88,5.571 56.19,16.832 14.22,11.262 21.3,30.2 21.3,56.8 0,26.22 -7.08,45 -21.3,56.26 -14.31,11.15 -33.01,16.81 -56.19,16.81 l -72.58,0 z m -47.15,26.39 c 0,4.19 1.48,7.81 4.45,11.03 2.99,3.14 7.15,4.92 12.36,5.29 l 102.92,0 c 16.82,0 32.88,-1.86 47.97,-5.59 15.21,-3.82 28.48,-9.99 39.94,-18.54 11.43,-8.66 20.43,-20.22 27.01,-34.6 6.54,-14.44 9.79,-32.35 9.79,-53.72 0,-17.22 -2.15,-32.098 -6.46,-44.63 -4.32,-12.59 -10.2,-23.23 -17.75,-32.031 -7.44,-8.789 -16.36,-15.949 -26.68,-21.379 -10.27,-5.461 -21.21,-9.238 -32.84,-11.488 l 83.23,-157.961 c 1.4,-2.602 2.14,-5.223 2.14,-7.82 0,-6.411 -2.96,-12.082 -8.92,-16.922 -6.04,-4.848 -12.38,-7.278 -19.15,-7.278 -4.85,0 -8.93,1.848 -12.38,5.629 -3.36,3.739 -6.32,8.059 -8.92,12.899 l -84.88,164.672 -64.68,0 0,-165.2 c 0,-5.66 -2.39,-9.902 -7.29,-12.652 -4.84,-2.84 -10.3,-4.269 -16.34,-4.269 -5.96,0 -11.39,1.429 -16.24,4.269 -4.85,2.75 -7.28,6.992 -7.28,12.652 l 0,377.639" /><path
             id="path72"
             style="fill:#5c5f65;fill-opacity:1;fill-rule:nonzero;stroke:none"
             d="m 5685.77,757.051 c 22.52,0 40.08,6.039 52.93,18.25 12.66,12.16 19.07,31.758 19.07,58.73 l 0,9.539 c 0,26.961 -6.41,45.95 -19.07,57.078 -12.85,11.024 -30.41,16.532 -52.93,16.532 l -75.84,0 0,-160.129 75.84,0 z m -75.84,199.469 70.26,0 c 22.88,0 39.78,5.082 50.87,15.199 11.06,10.152 16.57,26.961 16.57,50.601 0,11.26 -1.72,20.66 -5.06,28.32 -3.37,7.73 -8.06,13.93 -14.02,18.56 -6.04,4.67 -13.34,8.11 -21.99,10.12 -8.58,2.1 -17.96,3.12 -28.07,3.12 l -68.56,0 0,-125.92 z m -47.18,151.78 c 0,5.59 2.26,9.86 6.7,12.58 4.49,2.86 9.41,4.27 14.63,4.27 l 96.71,0 c 15.34,0 29.96,-1.27 43.82,-3.95 13.85,-2.62 25.91,-7.47 36.21,-14.62 10.27,-7.08 18.54,-16.98 24.74,-29.51 6.17,-12.5 9.29,-28.53 9.29,-48.05 0,-23.61 -4.31,-43.29 -12.95,-59 -8.63,-15.731 -20.18,-26.75 -34.8,-33.161 8.57,-3.359 16.47,-7.597 23.54,-12.609 7.15,-5.059 13.28,-11.391 18.29,-18.828 5.03,-7.531 9,-16.563 11.8,-27 2.84,-10.492 4.27,-22.852 4.27,-37.113 l 0,-10.118 c 0,-21.32 -2.91,-39.57 -8.71,-54.461 -5.91,-15.05 -13.72,-27.128 -23.71,-36.289 -9.9,-9.171 -21.59,-15.812 -35.1,-19.972 -13.49,-4.078 -28.08,-6.199 -43.79,-6.199 l -109.61,0 c -6.41,0 -11.55,1.718 -15.42,5.089 -3.97,3.34 -5.91,7.071 -5.91,11.262 l 0,377.679" /><path
             id="path74"
             style="fill:#5c5f65;fill-opacity:1;fill-rule:nonzero;stroke:none"
             d="m 6046.05,847.512 -62.38,211.338 -63.46,-211.338 125.84,0 z M 5867.35,714.27 c -6.4,0 -12.73,1.8 -19.12,5.378 -6.35,3.571 -9.56,8.344 -9.56,14.301 0,0.742 0.37,2.301 1.13,4.563 l 114.68,373.738 c 1.86,5.58 5.59,9.7 11.23,12.37 5.62,2.54 11.63,3.9 17.96,3.9 6.42,0 12.37,-1.44 17.96,-4.19 5.67,-2.83 9.39,-6.87 11.26,-12.08 l 114.68,-373.738 c 0,-0.821 0.08,-1.442 0.29,-2.012 0.16,-0.539 0.24,-1.199 0.24,-1.941 0,-5.668 -3.13,-10.438 -9.56,-14.379 -6.31,-3.899 -12.89,-5.91 -19.66,-5.91 -4.1,0 -7.69,0.902 -10.65,2.539 -3,1.73 -5.06,4.402 -6.2,8.191 l -24.74,83.75 -147.82,0 -24.73,-83.75 c -2.26,-7.16 -8.06,-10.73 -17.39,-10.73" /><path
             id="path76"
             style="fill:#5c5f65;fill-opacity:1;fill-rule:nonzero;stroke:none"
             d="m 6401.26,714.27 c -6.36,0 -12.08,2.011 -17.14,5.91 -5.01,3.941 -9.25,9.082 -12.66,15.5 l -146.12,282.69 0,-287.179 c 0,-5.66 -2.41,-9.902 -7.23,-12.652 -4.93,-2.84 -10.36,-4.269 -16.32,-4.269 -6.04,0 -11.47,1.429 -16.32,4.269 -4.92,2.75 -7.31,6.992 -7.31,12.652 l 0,377.639 c 0,6.05 2.31,10.2 7,12.67 4.68,2.46 10.22,3.65 16.63,3.65 8.55,0 15.42,-2.54 20.48,-7.6 5.05,-4.98 10.22,-12.45 15.42,-22.21 l 140.02,-273.68 0,287.17 c 0,5.67 2.38,9.75 7.31,12.37 4.84,2.68 10.27,3.95 16.24,3.95 6.03,0 11.46,-1.27 16.32,-3.95 4.81,-2.62 7.3,-6.7 7.3,-12.37 l 0,-377.639 c 0,-5.66 -2.49,-9.902 -7.3,-12.652 -4.86,-2.84 -10.29,-4.269 -16.32,-4.269" /><path
             id="path78"
             style="fill:#5c5f65;fill-opacity:1;fill-rule:nonzero;stroke:none"
             d="m 5129.09,307.969 c -0.29,5.66 -1.33,12.211 -3.05,19.66 -1.69,7.519 -5.05,14.621 -10.11,21.16 -5.09,6.57 -12.38,12.16 -21.91,16.852 -9.54,4.679 -22.22,7.019 -37.94,7.019 -24.36,0 -42.91,-6.5 -55.67,-19.398 -12.71,-12.973 -19.07,-33.082 -19.07,-60.422 l 0,-169.16 c 0,-27.3284 6.4,-47.5198 19.38,-60.4183 12.9,-12.9609 31.9,-19.4414 57.06,-19.4414 15.74,0 28.03,2.3086 37.06,6.7813 9.01,4.4687 15.95,10.1093 20.85,16.8398 4.85,6.7891 8.13,13.9375 9.77,21.668 1.7,7.6914 2.89,14.9216 3.63,21.6096 1.22,10.89 9.04,16.32 23.63,16.32 7.9,0 13.8,-1.719 17.75,-5.078 3.87,-3.332 5.88,-10.492 5.88,-21.371 0,-13.8595 -2.83,-26.8986 -8.42,-39.0314 -5.67,-12.1484 -13.7,-22.75 -24.22,-31.75 -10.43,-9.0195 -23.25,-16.0274 -38.43,-21.09766 -15.21,-5.0625 -32.21,-7.58985 -50.91,-7.58985 -16.45,0 -32.03,2.16016 -46.66,6.48829 -14.58,4.32032 -27.33,11.31252 -38.22,21.08202 -10.89,9.75 -19.44,22.3594 -25.85,37.8984 -6.34,15.5821 -9.54,34.6012 -9.54,57.0902 l 0,169.16 c 0,22.492 3.2,41.519 9.54,57.09 6.41,15.468 15.12,28.16 26.17,37.902 11.02,9.699 23.89,16.77 38.52,21.098 14.59,4.242 30.17,6.402 46.64,6.402 18.68,0 35.53,-2.523 50.6,-7.523 14.97,-5.059 27.71,-12.079 38.14,-20.868 10.52,-8.769 18.55,-19.082 24.22,-30.832 5.59,-11.867 8.42,-24.668 8.42,-38.519 0,-10.891 -2.01,-17.961 -5.88,-21.078 -3.95,-3.223 -9.85,-4.813 -17.75,-4.813 -14.97,0 -22.86,5.461 -23.63,16.27" /><path
             id="path80"
             style="fill:#5c5f65;fill-opacity:1;fill-rule:nonzero;stroke:none"
             d="m 5436.03,197.82 -152.4,0 0,-176.4411 c 0,-5.668 -2.38,-9.8984 -7.2,-12.66796 -4.93,-2.83203 -10.36,-4.24219 -16.32,-4.24219 -6.04,0 -11.5,1.41016 -16.34,4.24219 -4.9,2.76956 -7.29,6.99996 -7.29,12.66796 l 0,377.6411 c 0,5.671 2.39,9.742 7.29,12.371 4.84,2.668 10.3,3.941 16.34,3.941 5.96,0 11.39,-1.273 16.32,-3.941 4.82,-2.629 7.2,-6.7 7.2,-12.371 l 0,-161.829 152.4,0 0,161.829 c 0,5.671 2.44,9.742 7.28,12.371 4.85,2.668 10.3,3.941 16.24,3.941 6.07,0 11.49,-1.273 16.35,-3.941 4.92,-2.629 7.28,-6.7 7.28,-12.371 l 0,-377.6411 c 0,-5.668 -2.36,-9.8984 -7.28,-12.66796 -4.86,-2.83203 -10.28,-4.24219 -16.35,-4.24219 -5.94,0 -11.39,1.41016 -16.24,4.24219 -4.84,2.76956 -7.28,6.99996 -7.28,12.66796 l 0,176.4411" /><path
             id="path82"
             style="fill:#5c5f65;fill-opacity:1;fill-rule:nonzero;stroke:none"
             d="m 5740.02,137.699 -62.35,211.332 -63.47,-211.332 125.82,0 z M 5561.35,4.46875 c -6.41,0 -12.75,1.78125 -19.15,5.36328 -6.33,3.57817 -9.53,8.37887 -9.53,14.29687 0,0.8203 0.37,2.3125 1.11,4.5625 l 114.67,373.7696 c 1.88,5.559 5.58,9.668 11.26,12.348 5.58,2.613 11.55,3.882 17.96,3.882 6.4,0 12.37,-1.421 18.03,-4.179 5.6,-2.832 9.3,-6.864 11.18,-12.051 L 5821.55,28.6914 c 0,-0.8203 0.09,-1.4023 0.3,-1.9297 0.16,-0.6211 0.29,-1.2695 0.29,-2.0117 0,-5.6016 -3.2,-10.4414 -9.53,-14.3086 -6.42,-3.9414 -12.96,-5.97265 -19.74,-5.97265 -4.11,0 -7.68,0.88281 -10.67,2.60156 -2.97,1.64063 -5.06,4.35159 -6.17,8.14059 l -24.75,83.7579 -147.83,0 -24.67,-83.7579 c -2.23,-7.15231 -8.14,-10.74215 -17.43,-10.74215" /><path
             id="path84"
             style="fill:#5c5f65;fill-opacity:1;fill-rule:nonzero;stroke:none"
             d="m 5893.45,4.46875 c -5.22,0 -10.06,1.41016 -14.59,4.24219 -4.48,2.76956 -6.71,6.99996 -6.71,12.66796 l 0,377.6411 c 0,5.671 2.39,9.742 7.28,12.371 4.86,2.668 10.29,3.941 16.35,3.941 5.94,0 11.39,-1.273 16.24,-3.941 4.85,-2.629 7.29,-6.7 7.29,-12.371 l 0,-351.7895 153.42,0 c 5.3,0 9.16,-2.2188 11.55,-6.7813 2.47,-4.4492 3.66,-9.3672 3.66,-14.5898 0,-5.2188 -1.19,-10.1485 -3.66,-14.5977 -2.39,-4.48045 -6.25,-6.79295 -11.55,-6.79295 l -179.28,0" /><path
             id="path86"
             style="fill:#5c5f65;fill-opacity:1;fill-rule:nonzero;stroke:none"
             d="m 6156.49,4.46875 c -5.22,0 -10.06,1.41016 -14.54,4.24219 -4.53,2.76956 -6.78,6.99996 -6.78,12.66796 l 0,377.6411 c 0,5.671 2.38,9.742 7.31,12.371 4.84,2.668 10.27,3.941 16.32,3.941 5.96,0 11.39,-1.273 16.32,-3.941 4.84,-2.629 7.22,-6.7 7.22,-12.371 l 0,-351.7895 153.49,0 c 5.21,0 9.03,-2.2188 11.49,-6.7813 2.44,-4.4492 3.66,-9.3672 3.66,-14.5898 0,-5.2188 -1.22,-10.1485 -3.66,-14.5977 -2.46,-4.48045 -6.28,-6.79295 -11.49,-6.79295 l -179.34,0" /><path
             id="path88"
             style="fill:#5c5f65;fill-opacity:1;fill-rule:nonzero;stroke:none"
             d="m 6445.36,229.879 87.71,0 c 5.22,0 9.32,-2.09 12.08,-6.199 2.83,-4.11 4.16,-8.801 4.16,-14.071 0,-4.468 -1.27,-8.711 -3.87,-12.898 -2.6,-4.102 -6.78,-6.172 -12.37,-6.172 l -87.71,0 0,-143.3085 174.22,0 c 5.27,0 9.33,-2.1407 12.14,-6.461 2.78,-4.3398 4.18,-9.4804 4.18,-15.4179 0,-5.3008 -1.27,-10.0625 -3.95,-14.4102 -2.61,-4.32031 -6.7,-6.47265 -12.37,-6.47265 l -200.07,0 c -5.22,0 -10.07,1.41016 -14.6,4.24219 -4.47,2.76956 -6.7,6.99996 -6.7,12.66796 l 0,377.1091 c 0,5.582 2.23,9.852 6.7,12.684 4.53,2.82 9.38,4.16 14.6,4.16 l 200.07,0 c 5.67,0 9.76,-2.16 12.37,-6.402 2.68,-4.328 3.95,-9.09 3.95,-14.391 0,-5.957 -1.4,-11.18 -4.18,-15.418 -2.81,-4.312 -6.87,-6.461 -12.14,-6.461 l -174.22,0 0,-142.781" /><path
             id="path90"
             style="fill:#5c5f65;fill-opacity:1;fill-rule:nonzero;stroke:none"
             d="m 6910.18,4.46875 c -6.42,0 -12.05,2.03125 -17.14,5.97265 -5.06,3.8672 -9.33,9.0781 -12.67,15.418 l -146.11,282.6996 0,-287.1801 c 0,-5.668 -2.46,-9.8984 -7.32,-12.66796 -4.84,-2.83203 -10.27,-4.24219 -16.31,-4.24219 -5.96,0 -11.39,1.41016 -16.24,4.24219 -4.9,2.76956 -7.31,6.99996 -7.31,12.66796 l 0,377.6411 c 0,6.031 2.3,10.222 7.02,12.66 4.69,2.461 10.2,3.652 16.53,3.652 8.66,0 15.52,-2.523 20.58,-7.523 5.06,-5.059 10.2,-12.508 15.42,-22.278 l 139.91,-273.691 0,287.18 c 0,5.671 2.47,9.742 7.32,12.371 4.93,2.668 10.36,3.941 16.32,3.941 5.95,0 11.38,-1.273 16.31,-3.941 4.85,-2.629 7.31,-6.7 7.31,-12.371 l 0,-377.6411 c 0,-5.668 -2.46,-9.8984 -7.31,-12.66796 -4.93,-2.83203 -10.36,-4.24219 -16.31,-4.24219" /><path
             id="path92"
             style="fill:#5c5f65;fill-opacity:1;fill-rule:nonzero;stroke:none"
             d="m 7204.74,307.969 c -2.33,19.519 -9.11,35.179 -20.58,46.941 -11.4,11.84 -29.36,17.75 -53.64,17.75 -23.26,0 -41.27,-6.5 -54.25,-19.398 -12.96,-12.973 -19.37,-33.082 -19.37,-60.422 l 0,-169.16 c 0,-27.3284 6.41,-47.5198 19.37,-60.4183 12.98,-12.9609 30.99,-19.4414 54.25,-19.4414 23.25,0 41.42,6.4805 54.54,19.4414 13.11,12.8985 19.68,33.0899 19.68,60.4183 l 0,57.3 -66.92,0 c -5.29,0 -9.24,1.93 -12.07,5.911 -2.84,3.941 -4.27,8.5 -4.27,13.781 0,4.84 1.43,9.308 4.27,13.469 2.83,4.109 6.78,6.199 12.07,6.199 l 97.76,0 c 5.29,0 9.32,-1.801 12.08,-5.379 2.83,-3.57 4.23,-7.52 4.23,-12.051 l 0,-79.23 c 0,-22.489 -3.04,-41.5081 -9.24,-57.0902 -6.18,-15.539 -14.84,-28.1484 -25.85,-37.8984 -11.11,-9.7695 -24.01,-16.7617 -38.81,-21.08202 -14.84,-4.32813 -30.63,-6.48829 -47.47,-6.48829 -16.85,0 -32.72,2.16016 -47.47,6.48829 -14.81,4.32032 -27.66,11.31252 -38.52,21.08202 -10.89,9.75 -19.36,22.3594 -25.57,37.8984 -6.17,15.5821 -9.29,34.6012 -9.29,57.0902 l 0,169.16 c 0,22.492 3.12,41.519 9.29,57.09 6.21,15.468 14.68,28.16 25.57,37.902 10.86,9.699 23.62,16.77 38.22,21.098 14.6,4.242 30.1,6.402 46.65,6.402 18.33,0 35.1,-2.383 50.31,-7.312 15.2,-4.84 28.07,-11.68 38.73,-20.481 10.72,-8.789 18.93,-19.379 24.73,-31.73 5.83,-12.368 8.72,-26.09 8.72,-41.059 0,-9.039 -2.1,-15.121 -6.17,-18.238 -4.11,-3.223 -9.91,-4.813 -17.43,-4.813 -6.36,0 -11.79,1.223 -16.27,3.66 -4.53,2.461 -6.99,6.653 -7.28,12.61" /><path
             id="path94"
             style="fill:#5c5f65;fill-opacity:1;fill-rule:nonzero;stroke:none"
             d="m 7368.82,229.879 87.67,0 c 5.23,0 9.25,-2.09 12.08,-6.199 2.84,-4.11 4.16,-8.801 4.16,-14.071 0,-4.468 -1.32,-8.711 -3.86,-12.898 -2.68,-4.102 -6.78,-6.172 -12.38,-6.172 l -87.67,0 0,-143.3085 174.19,0 c 5.3,0 9.32,-2.1407 12.08,-6.461 2.81,-4.3398 4.24,-9.4804 4.24,-15.4179 0,-5.3008 -1.32,-10.0625 -3.95,-14.4102 -2.6,-4.32031 -6.78,-6.47265 -12.37,-6.47265 l -200.05,0 c -5.29,0 -10.14,1.41016 -14.62,4.24219 -4.53,2.76956 -6.78,6.99996 -6.78,12.66796 l 0,377.1091 c 0,5.582 2.25,9.852 6.78,12.684 4.48,2.82 9.33,4.16 14.62,4.16 l 200.05,0 c 5.59,0 9.77,-2.16 12.37,-6.402 2.63,-4.328 3.95,-9.09 3.95,-14.391 0,-5.957 -1.43,-11.18 -4.24,-15.418 -2.76,-4.312 -6.78,-6.461 -12.08,-6.461 l -174.19,0 0,-142.781" /><path
             id="path96"
             style="fill:#5c5f65;fill-opacity:1;fill-rule:nonzero;stroke:none"
             d="m 7705.98,43.8203 c 23.63,0 42.54,5.7383 56.76,17.1406 14.25,11.461 21.41,28.9688 21.41,52.6091 0,18.7 -4.56,33.532 -13.81,44.34 -9.13,10.942 -20.63,19.871 -34.28,27.039 -13.69,7.071 -28.44,13.492 -44.39,19.082 -15.95,5.578 -30.7,12.66 -44.42,21.078 -13.62,8.43 -25.11,19.289 -34.28,32.641 -9.14,13.238 -13.69,31.359 -13.69,54.172 0,20.629 3.79,37.687 11.46,51.18 7.69,13.48 17.51,24.16 29.51,32.046 12.01,7.813 25.25,13.411 39.88,16.532 14.66,3.199 28.89,4.769 42.75,4.769 10.14,0 20.87,-0.738 32.26,-2.23 11.5,-1.477 22.07,-3.727 31.81,-6.699 9.7,-3.071 17.91,-6.86 24.46,-11.551 6.48,-4.719 9.82,-10.231 9.82,-16.629 0,-4.461 -1.77,-9.91 -5.35,-16.238 -3.58,-6.422 -8.59,-9.59 -14.91,-9.59 -3.34,0 -7,1.16 -10.94,3.418 -3.95,2.218 -8.8,4.679 -14.6,7.3 -5.83,2.602 -12.98,5.071 -21.32,7.29 -8.48,2.218 -18.84,3.359 -31.23,3.359 -10.5,0 -20.32,-1.059 -29.51,-3.149 -9.22,-1.98 -17.2,-5.269 -24.13,-9.75 -6.92,-4.558 -12.53,-10.511 -16.61,-18.031 -4.16,-7.449 -6.2,-16.687 -6.2,-27.5 0,-15.789 4.56,-28.16 13.79,-37.09 9.17,-9.027 20.56,-16.629 34.28,-22.808 13.64,-6.199 28.48,-12.082 44.41,-17.66 15.87,-5.602 30.69,-13.121 44.42,-22.493 13.61,-9.328 25.03,-21.699 34.28,-37.117 9.16,-15.359 13.69,-35.75 13.69,-61.242 0,-20.2187 -3.05,-37.7968 -9.22,-52.5273 -6.2,-14.832 -14.79,-27.0703 -25.57,-36.8203 C 7785.63,18.9219 7772.65,11.7109 7757.69,7.07031 7742.71,2.37891 7726.24,0 7708.28,0 c -18.02,0 -34.41,2.14844 -49.17,6.5 -14.82,4.3086 -27.41,9.6602 -37.71,16.2305 -10.29,6.539 -18.26,13.5586 -23.84,20.8515 -5.68,7.3086 -8.51,13.9297 -8.51,19.918 0,5.6406 2.25,11.3086 6.49,17.1094 4.34,5.832 9.09,8.7226 14.38,8.7226 4.11,0 8.35,-2.3125 12.61,-6.9922 4.33,-4.6992 9.88,-9.9179 16.83,-15.75 6.99,-5.8007 15.73,-11.0586 26.14,-15.6992 10.52,-4.6914 24,-7.0703 40.48,-7.0703" /><path
             id="path98"
             style="fill:#1d76ba;fill-opacity:1;fill-rule:nonzero;stroke:none"
             d="m 372.395,3562.52 c 0,0 0,-883.73 0,-1018.96 0,-323.81 310.535,-731.54 787.085,-731.54 186.09,0 276.18,56.21 352.27,102.89 -300.29,35.02 -538.359,303.47 -538.359,595.59 0,185.74 0,1052.02 0,1052.02 l -600.996,0 m 974.535,-0.19 c 0,0 0,-903.94 0,-985.09 0,-157.61 129.46,-292.93 301.48,-292.93 172.02,0 301.49,131.17 301.49,292.93 0,55.27 0,985.09 0,985.09 l -602.97,0 z m 970.73,368.97 c 0,0 0,-1157.69 0,-1370.18 C 2317.66,1939.36 1820,1435.21 1158.81,1435.21 497.633,1435.21 0,1955.33 0,2561.12 0,2873.06 0,3931.3 0,3931.3 l 2317.66,0" /></g></g></g></g></svg>