<?xml version="1.0" encoding="utf-8"?>
<!-- Generator: Adobe Illustrator 17.1.0, SVG Export Plug-In . SVG Version: 6.00 Build 0)  -->
<!DOCTYPE svg PUBLIC "-//W3C//DTD SVG 1.1//EN" "http://www.w3.org/Graphics/SVG/1.1/DTD/svg11.dtd">
<svg version="1.1" id="Layer_1" xmlns="http://www.w3.org/2000/svg" xmlns:xlink="http://www.w3.org/1999/xlink" x="0px" y="0px"
	 viewBox="0 0 222.8 63.8" enable-background="new 0 0 222.8 63.8" xml:space="preserve">
<line fill="none" stroke="#F1385A" stroke-width="0.5" x1="126.3" y1="2" x2="92.8" y2="60.1"/>
<path fill="none" stroke="#0075B9" stroke-width="8.133" stroke-miterlimit="10" d="M6.2,19h32.6v23c0,12.4-9.6,16.1-16.1,16.1
	S6.2,53.5,6.2,42V19z"/>
<path fill="none" stroke="#0075B9" stroke-width="7.632" stroke-miterlimit="10" d="M22.4,19h16.5v17c0,0,0,10.2-8.2,10.2
	c-8.5,0-8.2-10.2-8.2-10.2V19z"/>
<path d="M50.5,16.4h1v8.3c0,2.2,1.3,3.2,2.9,3.2c1.6,0,2.9-1,2.9-3.2v-8.3h1v8.3c0,2.6-1.7,4.2-3.9,4.2c-2.2,0-3.9-1.6-3.9-4.2V16.4
	z"/>
<path d="M65.3,22c1.3,0,2.4-0.8,2.4-2.3s-1.1-2.3-2.4-2.3h-3.2V22H65.3z M62.1,23v5.8h-1V16.4h4.2c2,0,3.4,1.4,3.4,3.3
	c0,1.8-1.2,3.1-3,3.2l3.4,5.8H68L64.6,23H62.1z"/>
<path d="M72.2,23v4.8h3.5c1.4,0,2.4-0.9,2.4-2.4c0-1.5-1-2.4-2.4-2.4H72.2z M75.3,22c1.3,0,2.4-0.8,2.4-2.3s-1.1-2.3-2.4-2.3h-3.1
	V22H75.3z M79,25.4c0,1.8-1.2,3.4-3.4,3.4h-4.4V16.4h4.1c2,0,3.4,1.4,3.4,3.3c0,1.2-0.7,2.3-1.6,2.7C78.1,22.8,79,24,79,25.4"/>
<path d="M86.9,24l-2-6l-2,6H86.9z M87.2,24.9h-4.7l-1.3,3.8h-1l4.2-12.3h0.9l4.2,12.3h-1L87.2,24.9z"/>
<polygon points="99.1,28.7 98.1,28.7 92.3,18.3 92.3,28.7 91.3,28.7 91.3,16.4 92.3,16.4 98.1,26.8 98.1,16.4 99.1,16.4 "/>
<rect x="47" y="45.5" fill="#0075B9" width="1.5" height="1.5"/>
<path fill="#0075B9" d="M50.6,34.6h1v8.3c0,2.2,1.3,3.2,2.9,3.2c1.6,0,2.9-1,2.9-3.2v-8.3h1v8.3c0,2.6-1.7,4.2-3.9,4.2
	c-2.2,0-3.9-1.6-3.9-4.2V34.6z"/>
<path fill="#0075B9" d="M61.6,37.7c0,1.2,0.6,2,1.7,2.3l2.2,0.6C66.9,41,68,42,68,43.8c0,1.8-1.1,3.3-3.6,3.3
	c-2.2,0-3.7-1.4-3.9-3.7h1c0.2,1.8,1.5,2.7,3,2.7c1.7,0,2.6-0.8,2.6-2.4c0-1-0.5-1.9-1.8-2.3L63,41c-1.6-0.4-2.4-1.7-2.4-3.3
	c0-1.8,1.2-3.3,3.5-3.3c2,0,3.3,1.2,3.6,3.2h-1c-0.3-1.5-1.3-2.2-2.7-2.2C62.5,35.4,61.6,36.4,61.6,37.7"/>
<g>
	<path fill="#333745" d="M127.3,18.1v7.3c0,2.8,1.2,3.9,2.9,3.9c1.8,0,3-1.2,3-3.9v-7.3h1.6v7.2c0,3.8-2,5.3-4.7,5.3
		c-2.5,0-4.4-1.4-4.4-5.3v-7.3H127.3z"/>
	<path fill="#333745" d="M137.6,18.3c0.8-0.2,2-0.3,3.1-0.3c1.7,0,2.8,0.3,3.6,1c0.6,0.5,1,1.4,1,2.3c0,1.6-1,2.7-2.3,3.1v0.1
		c1,0.3,1.5,1.2,1.8,2.5c0.4,1.7,0.7,2.9,1,3.4H144c-0.2-0.3-0.5-1.4-0.8-2.9c-0.4-1.7-1-2.3-2.5-2.4h-1.5v5.3h-1.6V18.3z
		 M139.2,23.9h1.6c1.7,0,2.8-0.9,2.8-2.3c0-1.6-1.2-2.3-2.8-2.3c-0.8,0-1.3,0.1-1.6,0.1V23.9z"/>
	<path fill="#333745" d="M147.8,18.3c0.7-0.1,1.8-0.3,2.9-0.3c1.6,0,2.6,0.3,3.4,0.9c0.6,0.5,1,1.2,1,2.2c0,1.2-0.8,2.2-2.1,2.7v0
		c1.2,0.3,2.5,1.3,2.5,3.1c0,1.1-0.4,1.9-1,2.5c-0.9,0.8-2.3,1.2-4.3,1.2c-1.1,0-1.9-0.1-2.5-0.1V18.3z M149.4,23.3h1.4
		c1.7,0,2.7-0.9,2.7-2.1c0-1.4-1.1-2-2.7-2c-0.7,0-1.2,0.1-1.4,0.1V23.3z M149.4,29.3c0.3,0.1,0.8,0.1,1.3,0.1
		c1.6,0,3.2-0.6,3.2-2.4c0-1.7-1.4-2.4-3.2-2.4h-1.3V29.3z"/>
	<path fill="#333745" d="M160,26.6l-1.3,3.9H157l4.2-12.3h1.9l4.2,12.3h-1.7l-1.3-3.9H160z M164,25.3l-1.2-3.6
		c-0.3-0.8-0.5-1.5-0.6-2.3h0c-0.2,0.7-0.4,1.5-0.6,2.2l-1.2,3.6H164z"/>
	<path fill="#333745" d="M169.6,30.5V18.1h1.7l4,6.2c0.9,1.4,1.6,2.7,2.2,4l0,0c-0.1-1.6-0.2-3.1-0.2-5.1v-5.2h1.5v12.3h-1.6
		l-3.9-6.3c-0.9-1.4-1.7-2.8-2.3-4.1l-0.1,0c0.1,1.6,0.1,3,0.1,5.1v5.3H169.6z"/>
	<path fill="#333745" d="M184.4,19.5h-3.8v-1.4h9.1v1.4H186v11h-1.6V19.5z"/>
	<path fill="#333745" d="M198,24.7h-4.8v4.4h5.3v1.3h-6.9V18.1h6.7v1.3h-5.1v3.9h4.8V24.7z"/>
	<path fill="#333745" d="M209.4,30.1c-0.6,0.3-1.8,0.6-3.3,0.6c-3.5,0-6.1-2.2-6.1-6.2c0-3.9,2.6-6.5,6.4-6.5c1.5,0,2.5,0.3,2.9,0.5
		l-0.4,1.3c-0.6-0.3-1.5-0.5-2.5-0.5c-2.9,0-4.8,1.8-4.8,5.1c0,3,1.7,5,4.7,5c1,0,2-0.2,2.6-0.5L209.4,30.1z"/>
	<path fill="#333745" d="M213,18.1v5.2h6v-5.2h1.6v12.3H219v-5.8h-6v5.8h-1.6V18.1H213z"/>
</g>
<text transform="matrix(1 0 0 1 231.0938 178.6841)" fill="#333745" font-family="'SimplonBP-Bold'" font-size="18.3046"> </text>
<g>
	<path fill="#333745" d="M125.7,34.8c0.8-0.2,2-0.3,3.1-0.3c1.7,0,2.8,0.3,3.6,1c0.6,0.5,1,1.4,1,2.3c0,1.6-1,2.7-2.3,3.1v0.1
		c1,0.3,1.5,1.2,1.8,2.5c0.4,1.7,0.7,2.9,1,3.4H132c-0.2-0.3-0.5-1.4-0.8-2.9c-0.4-1.7-1-2.3-2.5-2.4h-1.5v5.3h-1.6V34.8z
		 M127.3,40.4h1.6c1.7,0,2.8-0.9,2.8-2.3c0-1.6-1.2-2.3-2.8-2.3c-0.8,0-1.3,0.1-1.6,0.1V40.4z"/>
	<path fill="#333745" d="M138.4,43.1l-1.3,3.9h-1.6l4.2-12.3h1.9l4.2,12.3h-1.7l-1.3-3.9H138.4z M142.4,41.8l-1.2-3.6
		c-0.3-0.8-0.5-1.5-0.6-2.3h0c-0.2,0.7-0.4,1.5-0.6,2.2l-1.2,3.6H142.4z"/>
	<path fill="#333745" d="M148,34.8c1-0.1,2.1-0.3,3.4-0.3c2.3,0,3.9,0.5,5,1.5c1.1,1,1.7,2.4,1.7,4.4c0,2-0.6,3.7-1.8,4.8
		c-1.2,1.2-3.1,1.8-5.5,1.8c-1.1,0-2.1-0.1-2.9-0.1V34.8z M149.6,45.7c0.4,0.1,1,0.1,1.6,0.1c3.4,0,5.3-1.9,5.3-5.2
		c0-2.9-1.6-4.8-5-4.8c-0.8,0-1.4,0.1-1.9,0.2V45.7z"/>
	<path fill="#333745" d="M162.2,43.1l-1.3,3.9h-1.6l4.2-12.3h1.9l4.2,12.3h-1.7l-1.3-3.9H162.2z M166.2,41.8l-1.2-3.6
		c-0.3-0.8-0.5-1.5-0.6-2.3h0c-0.2,0.7-0.4,1.5-0.6,2.2l-1.2,3.6H166.2z"/>
	<path fill="#333745" d="M171.8,34.8c0.8-0.2,2-0.3,3.1-0.3c1.7,0,2.8,0.3,3.6,1c0.6,0.5,1,1.4,1,2.3c0,1.6-1,2.7-2.3,3.1v0.1
		c1,0.3,1.5,1.2,1.8,2.5c0.4,1.7,0.7,2.9,1,3.4h-1.6c-0.2-0.3-0.5-1.4-0.8-2.9c-0.4-1.7-1-2.3-2.5-2.4h-1.5v5.3h-1.6V34.8z
		 M173.4,40.4h1.6c1.7,0,2.8-0.9,2.8-2.3c0-1.6-1.2-2.3-2.8-2.3c-0.8,0-1.3,0.1-1.6,0.1V40.4z"/>
</g>
</svg>
